<svg xmlns="http://www.w3.org/2000/svg" style="display:none">
  <!-- 佔位貼圖：之後把每個 <symbol> 的內容換成正式的可愛貼圖即可，尺寸統一 0 0 96 96 -->
  <symbol id="st-cat" viewBox="0 0 96 96">
    <path fill="currentColor" d="M24 30 20 12l18 10a38 38 0 0 1 20 0l18-10-4 18a34 34 0 1 1-48 0z"/>
    <circle cx="38" cy="50" r="5" fill="#3b2b2b"/><circle cx="58" cy="50" r="5" fill="#3b2b2b"/>
    <path d="M48 60l-5 5h10z" fill="#ff7a90"/>
    <g stroke="#3b2b2b" stroke-width="2.5" stroke-linecap="round"><path d="M18 58h12M18 66h12M66 58h12M66 66h12"/></g>
  </symbol>
  <symbol id="st-dog" viewBox="0 0 96 96">
    <ellipse cx="20" cy="54" rx="11" ry="21" fill="currentColor" transform="rotate(-14 20 54)"/>
    <ellipse cx="76" cy="54" rx="11" ry="21" fill="currentColor" transform="rotate(14 76 54)"/>
    <circle cx="48" cy="50" r="28" fill="currentColor"/>
    <circle cx="38" cy="46" r="4.5" fill="#3b2b2b"/><circle cx="58" cy="46" r="4.5" fill="#3b2b2b"/>
    <ellipse cx="48" cy="63" rx="15" ry="11" fill="#fff" opacity=".55"/>
    <ellipse cx="48" cy="58" rx="7" ry="5" fill="#3b2b2b"/>
    <path d="M48 63v5M48 68c-3 3-7 1-7-2M48 68c3 3 7 1 7-2" stroke="#3b2b2b" stroke-width="2.5" fill="none" stroke-linecap="round"/>
  </symbol>
  <symbol id="st-rabbit" viewBox="0 0 96 96">
    <g fill="currentColor"><ellipse cx="36" cy="26" rx="9" ry="22"/><ellipse cx="60" cy="26" rx="9" ry="22"/>
    <circle cx="48" cy="62" r="28"/></g>
    <circle cx="38" cy="58" r="4.5" fill="#3b2b2b"/><circle cx="58" cy="58" r="4.5" fill="#3b2b2b"/>
    <path d="M48 66l-4 4h8z" fill="#ff7a90"/>
  </symbol>
  <symbol id="st-bird" viewBox="0 0 96 96">
    <circle cx="46" cy="50" r="28" fill="currentColor"/>
    <path d="M74 46l14 6-14 6z" fill="#ffb03a"/>
    <circle cx="56" cy="44" r="4.5" fill="#3b2b2b"/>
    <path d="M30 50c10 0 16 6 18 14-10 2-18-4-18-14z" fill="#ffffff" opacity=".55"/>
    <path d="M40 22c2-8 10-10 12-4" stroke="currentColor" stroke-width="5" fill="none" stroke-linecap="round"/>
  </symbol>
  <symbol id="st-hamster" viewBox="0 0 96 96">
    <circle cx="30" cy="30" r="10" fill="currentColor"/><circle cx="66" cy="30" r="10" fill="currentColor"/>
    <ellipse cx="48" cy="56" rx="32" ry="28" fill="currentColor"/>
    <circle cx="37" cy="52" r="4.5" fill="#3b2b2b"/><circle cx="59" cy="52" r="4.5" fill="#3b2b2b"/>
    <ellipse cx="48" cy="62" rx="5" ry="4" fill="#ff7a90"/>
    <ellipse cx="48" cy="74" rx="16" ry="8" fill="#fff" opacity=".5"/>
  </symbol>
  <symbol id="st-reptile" viewBox="0 0 96 96">
    <path fill="currentColor" d="M12 62c10-16 22-22 34-22 10 0 16-6 18-14 10 2 16 10 16 20 0 18-16 32-36 32-14 0-24-6-32-16z"/>
    <circle cx="66" cy="42" r="4.5" fill="#3b2b2b"/>
    <g fill="#fff" opacity=".45"><circle cx="40" cy="58" r="5"/><circle cx="54" cy="64" r="4"/><circle cx="28" cy="66" r="4"/></g>
    <path d="M12 62c-6 4-8 10-4 14" stroke="currentColor" stroke-width="6" fill="none" stroke-linecap="round"/>
  </symbol>
  <symbol id="st-fish" viewBox="0 0 96 96">
    <path fill="currentColor" d="M64 48c0 14-14 24-30 24-10 0-18-4-24-10 6-4 8-10 8-14s-2-10-8-14c6-6 14-10 24-10 16 0 30 10 30 24z"/>
    <path fill="currentColor" d="M64 48l22-16v32z"/>
    <circle cx="26" cy="42" r="4.5" fill="#3b2b2b"/>
    <circle cx="74" cy="30" r="4" fill="#fff" opacity=".6"/>
  </symbol>
  <symbol id="st-heart" viewBox="0 0 96 96">
    <path fill="currentColor" d="M48 82C26 66 12 54 12 40a20 20 0 0 1 36-12A20 20 0 0 1 84 40c0 14-14 26-36 42z"/>
    <path d="M32 36c0-6 4-10 8-10" stroke="#fff" stroke-width="5" fill="none" stroke-linecap="round" opacity=".7"/>
  </symbol>
  <symbol id="st-paw" viewBox="0 0 96 96">
    <g fill="currentColor"><ellipse cx="30" cy="34" rx="9" ry="12"/><ellipse cx="48" cy="28" rx="9" ry="12"/>
    <ellipse cx="66" cy="34" rx="9" ry="12"/><ellipse cx="78" cy="50" rx="8" ry="10"/>
    <path d="M48 46c14 0 22 9 22 17s-10 9-22 9-22-1-22-9 8-17 22-17z"/></g>
  </symbol>
</svg>
